<?xml version="1.0" encoding="utf-8"?>
<!-- Generator: Adobe Illustrator 22.0.0, SVG Export Plug-In . SVG Version: 6.00 Build 0)  -->
<svg version="1.1" id="Capa_1" xmlns="http://www.w3.org/2000/svg" xmlns:xlink="http://www.w3.org/1999/xlink" x="0px" y="0px"
	 viewBox="0 0 266 78" style="enable-background:new 0 0 266 78;" xml:space="preserve">
<style type="text/css">
	.st0{fill:#222222;}
	.st1{fill:#AB7B60;}
</style>
<g>
	<path class="st0" d="M23.3,42.6c0-2.2,0.3-4.4,0.8-6.6c0.5-2.2,1.3-4.2,2.3-6.1c1-2,2.1-3.7,3.4-5.3c1.3-1.6,2.8-3,4.4-4.2
		c1.6-1.2,3.3-2.1,5.1-2.7c1.8-0.7,3.6-1,5.5-1c2.2,0,3.9,0.5,5.1,1.4c1.2,0.9,1.9,2.2,1.9,3.9c0,0.6-0.1,1.3-0.3,2
		c-0.2,0.7-0.4,1.3-0.8,2c-0.3,0.6-0.7,1.3-1.2,1.9c-0.4,0.6-0.9,1.1-1.5,1.6c-0.8-0.1-1.6-0.5-2.2-1.1c-0.6-0.6-1-1.4-1.2-2.2
		c1.1-0.9,2-1.9,2.6-2.9c0.7-1,1-2,1-2.8c0-1.4-0.9-2.1-2.6-2.1c-0.7,0-1.5,0.2-2.3,0.5c-0.8,0.3-1.6,0.7-2.4,1.2
		c-0.8,0.5-1.6,1.2-2.4,2c-0.7,0.8-1.4,1.6-2.1,2.5c-4.4,6.4-6.7,12.9-6.7,19.6c0,2.4,0.4,4.3,1.1,5.7s1.7,2.3,2.9,2.5
		c1.4-0.3,3.1-1.2,5.2-2.6c2.1-1.4,4.4-3.3,6.9-5.6c0.3,0.3,0.5,0.7,0.6,1c-0.9,1.2-1.9,2.4-2.9,3.5c-1,1.1-2,2.1-3,3.1
		c-1,0.9-1.9,1.7-2.9,2.4c-0.9,0.7-1.8,1.2-2.6,1.6c-4-0.1-7-1.2-9-3.4S23.3,46.9,23.3,42.6z M55.5,53.7c-1.8-0.2-3.3-1-4.4-2.4
		c-1.1-1.4-1.6-3.2-1.6-5.4c0-1.3,0.2-2.6,0.6-4c0.4-1.4,0.9-2.7,1.6-4c0.7-1.3,1.5-2.5,2.5-3.7c1-1.2,2-2.1,3.1-3
		c1.8-1.3,3.4-2,4.9-2c1,0.5,2,1.7,3,3.4c0.2,0,0.3,0,0.4,0c0.1,0,0.3,0,0.4,0c1.7,0,2.5,1.5,2.5,4.5c0,2-0.3,3.9-1,5.8
		c-0.6,1.8-1.6,3.4-2.7,4.9c-1.2,1.5-2.5,2.7-4.2,3.7C59.2,52.6,57.4,53.3,55.5,53.7z M57.9,38.6c-0.5,0.7-1.1,1.5-1.5,2.4
		c-0.5,0.9-0.9,1.7-1.2,2.6c-0.4,0.9-0.6,1.7-0.8,2.5c-0.2,0.8-0.3,1.5-0.3,2.2c0,0.8,0.1,1.5,0.4,2.2c0.3,0.7,0.5,1.1,0.9,1.2
		c1.4-0.3,2.8-0.9,3.9-1.8c1.2-0.9,2.3-2,3.1-3.3c0.9-1.3,1.6-2.8,2.1-4.5c0.5-1.7,0.8-3.4,0.8-5.3c0-0.8,0-1.5-0.1-2
		c-0.1-0.5-0.3-0.9-0.5-1.2c-1.4,0.4-2.7,1.1-3.8,2C59.7,36.6,58.7,37.5,57.9,38.6z M98.8,37.3c-0.5,0-1.1,0.4-1.9,1
		c-0.7,0.6-1.5,1.4-2.4,2.4c-0.8,1-1.7,2-2.6,3.2c-0.9,1.2-1.8,2.4-2.6,3.6c-0.8,1.2-1.6,2.2-2.4,3.3c-0.7,1-1.4,1.8-1.9,2.4
		c-0.7-0.3-1.3-0.7-1.8-1.2c-0.5-0.6-0.9-1.3-1.1-2.1c0.2-1,0.4-2,0.7-3.1c0.3-1.1,0.7-2.2,1.1-3.4c0.5-1.2,1.1-2.4,1.7-3.6
		c0.7-1.3,1.6-2.6,2.5-4c-0.5,0-1.1,0.4-2,1.1c-0.8,0.6-1.7,1.5-2.7,2.5c-1,1-2,2.2-3,3.5c-1,1.3-2,2.5-2.9,3.8
		c-1.2,1.7-2.2,3.1-3,4.4c-0.8,1.2-1.3,2-1.7,2.2c-0.8-0.6-1.4-1.3-1.7-2c-0.3-0.7-0.6-1.5-0.7-2.4c0-0.8,0.1-1.7,0.3-2.9
		c0.2-1.2,0.5-2.3,0.9-3.6c0.7-2.3,1.7-4.7,2.8-7c1.2-2.3,2.3-4.4,3.4-6.3c0.9,0.2,1.7,0.5,2.4,0.9c0.7,0.4,1.5,1,2.3,1.8
		c-0.3,1-0.8,2-1.5,3.2c-0.7,1.1-1.4,2.2-2.1,3.5s-1.4,2.5-2,3.7c-0.6,1.3-1,2.6-1.2,3.9c0.9-1.3,2-2.8,3.2-4.4
		c1.2-1.7,2.5-3.2,3.8-4.7c1.3-1.5,2.6-2.7,3.9-3.7c1.3-1,2.4-1.5,3.5-1.5c0.4,0,0.8,0.1,1.2,0.2c0.4,0.1,0.9,0.3,1.2,0.5
		c0.4,0.2,0.7,0.4,1,0.6c0.3,0.2,0.4,0.3,0.4,0.4c-0.2,0.6-0.5,1.5-1.2,2.6c-0.6,1.1-1.2,2.2-1.9,3.5s-1.3,2.4-1.9,3.6
		c-0.6,1.1-0.9,2-1,2.7c1.6-2.1,3-4.1,4.4-5.8c1.4-1.8,2.7-3.3,3.9-4.5c1.2-1.2,2.3-2.2,3.4-2.9c1.1-0.7,2-1,3-1
		c0.6,0,1.2,0.2,1.8,0.5c0.6,0.3,1,0.8,1.2,1.4c-0.3,1-0.8,2.1-1.4,3.5c-0.6,1.3-1.3,2.8-2,4.3c-0.7,1.5-1.3,2.9-1.8,4.4
		c-0.5,1.4-0.8,2.7-0.8,3.9c0,0.7,0.1,1.1,0.3,1.3c0.2,0.2,0.5,0.3,0.8,0.3c0.4,0,0.7-0.1,1.1-0.2c0.4-0.2,0.6-0.2,0.8-0.2
		c0.2,0.1,0.3,0.3,0.3,0.5c0,0.2,0,0.4,0,0.5c-0.6,0.5-1.3,0.9-2,1.2c-0.7,0.4-1.4,0.5-2.3,0.5c-0.8,0-1.4-0.1-1.9-0.4
		c-0.5-0.3-0.9-0.6-1.2-1.1s-0.5-1-0.7-1.5c-0.1-0.6-0.2-1.2-0.2-1.9c0-1.1,0.1-2.2,0.4-3.2c0.3-1.1,0.6-2.1,1-3.1
		c0.4-1,0.8-1.9,1.3-2.7C98.1,38.7,98.4,37.9,98.8,37.3z M110.1,65.9c-0.8-0.3-1.3-0.9-1.4-1.8c-0.1-0.9-0.7-1.6-1.6-2.1
		c0.3-1.6,0.5-3.3,0.9-4.9c0.3-1.7,0.7-3.6,1.2-5.7c0.5-2.1,1.1-4.6,1.9-7.4c0.8-2.8,1.7-6.3,2.9-10.3c-1.1,0-1.9,0-2.5,0
		c-0.6,0-1.2,0.1-1.8,0.2c-0.1-0.1-0.2-0.3-0.3-0.5c-0.1-0.2-0.1-0.4-0.1-0.6c0.3-0.1,1-0.3,2-0.5c1-0.2,2.1-0.4,3.3-0.6
		c0.8-2.4,1.6-4.6,2.6-6.5c1-2,2.1-3.6,3.2-5s2.4-2.4,3.6-3.2c1.3-0.7,2.6-1.1,3.9-1.1c0.4,0,0.8,0,1.1,0.1c0.4,0,0.6,0,0.8,0
		c0.3-0.2,0.7-0.4,1.2-0.6c0.5-0.2,0.9-0.3,1.2-0.3c0.4,0,0.9,0.2,1.5,0.6c-0.3,0.4-0.5,1.1-0.8,1.8c-0.3,0.8-0.5,1.5-0.7,2.3
		c-0.8,2.4-1.6,3.9-2.5,4.6c-0.4,0-0.5-0.5-0.6-1.4c0-0.7-0.1-1.3-0.3-2c-0.1-0.3-0.2-0.5-0.3-0.8c0-0.2,0-0.5,0-0.9
		c0-0.2,0-0.4,0-0.7c0-0.3,0.1-0.8,0.2-1.4c-0.5,0-1.2,0.3-1.8,1c-0.6,0.7-1.3,1.6-2.1,2.9c-0.7,1.2-1.4,2.7-2.2,4.4
		c-0.7,1.7-1.4,3.6-2.1,5.6l4-0.1c0.2,0.2,0.3,0.5,0.4,1.1c0.1,0.5,0.2,1.1,0.2,1.7l-5.3-0.3c-1.2,3.6-2.4,7.1-3.4,10.4
		c-1.1,3.3-2,6.3-2.8,9.1s-1.6,5.3-2.2,7.4C110.8,62.8,110.4,64.5,110.1,65.9z M141.9,44.6c-0.7,2.3-1.5,4.5-2.2,6.4
		c-0.7,1.9-1.5,3.7-2.4,5.3c-0.8,1.6-1.7,3.1-2.7,4.5c-1,1.4-2,2.7-3.2,3.9c-1.5,1.5-3,2.7-4.6,3.5c-1.6,0.8-3.1,1.2-4.7,1.2
		c-0.8,0-1.6-0.1-2.4-0.3c-0.8-0.2-1.5-0.4-2.2-0.7c-0.7-0.3-1.3-0.6-1.8-1.1c-0.5-0.4-0.9-0.8-1.2-1.2c0-0.4,0.2-0.7,0.7-1
		c0.4,0.4,0.7,0.6,1,0.8c0.3,0.2,0.5,0.4,0.8,0.5c0.2,0.1,0.5,0.2,0.8,0.2c0.3,0,0.6,0,0.9,0c1.8,0,3.6-0.5,5.3-1.6
		c1.8-1.1,3.4-2.6,4.9-4.6c1.6-2,3-4.3,4.3-7.2c1.3-2.8,2.4-5.9,3.3-9.4c-0.4,0.6-0.9,1.4-1.5,2.4c-0.6,0.9-1.3,1.9-2,2.8
		c-0.7,0.9-1.5,1.7-2.3,2.4c-0.8,0.7-1.5,1.2-2.3,1.5c-0.5,0-1.1-0.1-1.6-0.3c-0.5-0.2-1.1-0.4-1.6-0.7c-0.5-0.3-0.9-0.7-1.3-1.2
		c-0.4-0.4-0.6-1-0.8-1.5c0-0.9,0-1.7,0.1-2.2c0.1-0.6,0.2-1.2,0.3-1.9c0.3-1.2,0.7-2.6,1.2-4.1c0.6-1.5,1.2-3,2-4.5
		c0.8-1.5,1.6-2.9,2.5-4.2c0.9-1.3,1.9-2.3,2.9-3.1c0.3,0,0.6,0,1,0.1c0.4,0,0.8,0.1,1.2,0.2s0.8,0.3,1.2,0.5c0.4,0.2,0.7,0.4,1,0.7
		c-0.4,0.3-1.1,1.4-2.3,3.2c-1.2,1.8-2.5,4.4-3.9,7.9c-0.2,0.4-0.4,0.9-0.6,1.5s-0.4,1.4-0.7,2.1c-0.2,0.7-0.4,1.5-0.5,2.2
		c-0.2,0.7-0.2,1.3-0.2,1.7c0,0.3,0,0.4,0.1,0.6c0.1,0.1,0.2,0.2,0.2,0.3c0.6-0.1,1.3-0.6,2.3-1.4c1-0.9,2-2.2,3.3-4
		c0.8-1.2,1.5-2.3,2.1-3.4c0.6-1.2,1.3-2.3,1.9-3.5c0.6-1.2,1.3-2.3,2-3.6s1.4-2.5,2.2-3.7c0.4,0,0.9,0,1.3,0.1
		c0.5,0.1,0.9,0.2,1.4,0.4c0.4,0.1,0.8,0.3,1.2,0.5c0.4,0.2,0.6,0.3,0.8,0.5c-1,2.1-1.9,4.2-2.8,6.2S142.6,42.4,141.9,44.6z"/>
	<path class="st1" d="M178.9,19.6c0.1,0.5,0.2,0.9,0.2,1.2c0.1,0.2,0.1,0.5,0.1,0.8c0,1.1-0.2,2-0.7,3c-0.4,0.9-1.1,1.5-1.9,1.9
		c-0.6-0.9-1.4-1.6-2.4-2.2c-0.9-0.6-2-1.2-3.1-1.5c-1.1-0.4-2.2-0.7-3.4-0.9c-1.2-0.2-2.3-0.3-3.5-0.3c-1.1,0-2.2,0.1-3.2,0.3
		c-1,0.2-1.8,0.4-2.6,0.7c-0.7,0.3-1.3,0.7-1.8,1.1c-0.4,0.4-0.6,1-0.6,1.5c0.1,0.7,0.5,1.4,1.3,2.2c0.8,0.7,1.7,1.4,2.8,2.1
		c1.1,0.7,2.4,1.3,3.7,2c1.4,0.7,2.7,1.3,4,1.9c1.6,0.8,3,1.5,4.2,2.2c1.2,0.6,2.2,1.4,2.9,2.2c0.8,0.8,1.3,1.6,1.7,2.6
		s0.6,2.2,0.6,3.6c0,1.6-0.3,3.2-0.8,4.6c-0.5,1.4-1.3,2.6-2.4,3.7c-1,1.1-2.3,1.9-3.7,2.4c-1.5,0.6-3.1,0.9-4.9,0.9
		c-1.8,0-3.7-0.3-5.8-0.8c-2.1-0.5-4-1.3-5.9-2.3c-1.8-0.9-3.3-2-4.5-3.2c-1.2-1.2-1.8-2.6-1.8-3.9c0-0.6,0.2-1.5,0.5-2.4
		c0.4-1,1.1-2,2-3.1c0.1,1,0.6,2.1,1.5,3.4c1,1.3,2.4,2.5,4.3,3.6c1.8,1,3.6,1.8,5.4,2.3c1.9,0.4,3.6,0.7,5.3,0.7
		c1.8,0,3.2-0.2,4.4-0.7c1.1-0.4,2-1,2.6-1.6c0.6-0.6,1.1-1.3,1.3-1.9c0.3-0.6,0.4-1.2,0.4-1.5c0-0.6-0.3-1.2-0.9-1.8
		c-0.5-0.6-1.3-1.2-2.3-1.7c-0.9-0.6-2-1.2-3.3-1.7s-2.5-1.2-3.9-1.7c-2-0.9-3.8-1.7-5.2-2.5c-1.4-0.8-2.6-1.6-3.6-2.4
		c-0.9-0.8-1.6-1.7-2.1-2.6c-0.4-0.9-0.6-1.9-0.6-3.1c0-1.8,0.5-3.5,1.6-5.1s2.7-2.8,4.7-3.6c1-0.4,2.1-0.8,3.3-1
		c1.2-0.2,2.3-0.3,3.5-0.3c2.1,0,4.2,0.3,6.2,0.9C174.8,18,176.9,18.8,178.9,19.6z M180.6,48.9c0-1.4,0.3-3.4,1-5.9
		c0.7-2.6,1.6-5.5,2.8-8.9c2-5.4,3.8-9.9,5.6-13.5c1.8-3.6,3.5-6.4,5.1-8.4c0.4,0.1,0.8,0.2,1.4,0.5c0.6,0.3,1.1,0.5,1.7,0.9
		c0.5,0.3,1,0.6,1.4,0.9c0.4,0.3,0.7,0.6,0.9,0.8c-2.5,2.9-4.7,6.1-6.6,9.5s-3.6,7.3-5.2,11.7c-1.3,3.8-2.4,7.2-3.1,10.2
		c-0.7,3-1.1,5.5-1.1,7.5c0,0.5,0,0.9,0,1c0,0.1,0,0.3,0,0.4c-0.4-0.1-0.8-0.2-1.2-0.3c-0.3-0.2-0.5-0.4-0.6-0.6
		c-0.1-0.2-0.2-0.4-0.5-0.7c-0.3-0.3-0.5-0.5-0.8-0.7c-0.3-0.2-0.5-0.7-0.7-1.5C180.7,50.9,180.6,50,180.6,48.9z M197.5,53.7
		c-1.8-0.2-3.3-1-4.4-2.4c-1.1-1.4-1.6-3.2-1.6-5.4c0-1.3,0.2-2.6,0.6-4c0.4-1.4,0.9-2.7,1.6-4c0.7-1.3,1.5-2.5,2.5-3.7
		c1-1.2,2-2.1,3.1-3c1.8-1.3,3.4-2,4.9-2c1,0.5,2,1.7,3,3.4c0.2,0,0.3,0,0.4,0c0.1,0,0.3,0,0.4,0c1.7,0,2.5,1.5,2.5,4.5
		c0,2-0.3,3.9-1,5.8c-0.6,1.8-1.6,3.4-2.7,4.9c-1.2,1.5-2.5,2.7-4.2,3.7C201.2,52.6,199.4,53.3,197.5,53.7z M199.9,38.6
		c-0.5,0.7-1.1,1.5-1.5,2.4c-0.5,0.9-0.9,1.7-1.2,2.6c-0.4,0.9-0.6,1.7-0.8,2.5c-0.2,0.8-0.3,1.5-0.3,2.2c0,0.8,0.1,1.5,0.4,2.2
		c0.3,0.7,0.5,1.1,0.9,1.2c1.4-0.3,2.8-0.9,3.9-1.8c1.2-0.9,2.3-2,3.1-3.3c0.9-1.3,1.6-2.8,2.1-4.5c0.5-1.7,0.8-3.4,0.8-5.3
		c0-0.8,0-1.5-0.1-2c-0.1-0.5-0.3-0.9-0.5-1.2c-1.4,0.4-2.7,1.1-3.8,2C201.7,36.6,200.7,37.5,199.9,38.6z M215.4,33.6
		c-0.2-0.2-0.3-0.6-0.4-1.2c-0.1-0.6-0.2-1.2-0.2-1.6c0.8,0.1,1.6,0.1,2.4,0.2c0.8,0,1.5,0.1,2.1,0.1c0.5-1,1-1.9,1.5-2.8
		c0.6-1,1.1-1.8,1.6-2.6c0.5-0.8,1-1.5,1.5-2c0.5-0.5,0.8-0.9,1.1-1.1c0.3,0,0.7,0.1,1.2,0.2c0.5,0.1,1,0.2,1.5,0.4
		c0.5,0.2,1,0.3,1.4,0.5c0.4,0.2,0.7,0.4,0.9,0.6c-1,1.2-1.8,2.4-2.5,3.4c-0.7,1-1.4,2.2-2.2,3.6c0.6,0,1.3,0,1.9,0
		c0.7,0,1.3-0.1,2-0.1c0.2,0.2,0.3,0.4,0.4,0.6c0.1,0.2,0.1,0.5,0.1,0.7c-1.6,0.6-3.5,0.9-5.7,1c-0.8,1.5-1.5,3.1-2.2,4.6
		c-0.6,1.5-1.1,3-1.6,4.4c-0.4,1.4-0.8,2.7-1,4c-0.2,1.2-0.3,2.4-0.3,3.4c0,1.4,0.5,2.2,1.6,2.4c1-0.1,1.9-0.4,2.7-0.7
		c0.9-0.4,1.6-0.8,2.3-1.3c0.2,0.3,0.3,0.5,0.3,0.7c-0.2,0.3-0.5,0.6-1,1c-0.4,0.4-0.9,0.8-1.5,1.1c-0.5,0.4-1.1,0.7-1.6,1
		c-0.5,0.3-0.9,0.4-1.2,0.4c-0.8,0-1.6-0.2-2.4-0.5s-1.5-0.7-2.2-1.2c-0.6-0.5-1.2-1-1.6-1.6c-0.4-0.6-0.6-1.2-0.6-1.8
		c0-0.8,0.1-1.7,0.3-2.9c0.2-1.2,0.5-2.5,0.9-3.8c0.4-1.4,0.8-2.8,1.3-4.3c0.5-1.5,1.1-3,1.7-4.5H215.4z M229.4,51.2
		c0-1.1,0.1-2.4,0.3-3.9c0.2-1.5,0.5-3.2,1-4.9c0.4-1.7,1-3.5,1.5-5.4c0.6-1.9,1.3-3.8,2-5.7c0.6-1.7,1.4-3.4,2.2-5.1
		c0.9-1.7,1.8-3.4,2.8-5.1c1-1.7,2-3.2,3.1-4.8c1.1-1.5,2.2-2.9,3.3-4.1c0.5,0,1.1,0.1,1.6,0.2c0.6,0.1,1.2,0.3,1.7,0.5
		c0.6,0.2,1.1,0.4,1.5,0.7c0.5,0.3,0.9,0.6,1.2,0.9c-2.4,2.5-4.6,5-6.5,7.5c-1.9,2.5-3.4,4.8-4.6,7.1c-0.6,1.2-1.2,2.4-1.7,3.4
		c-0.5,1.1-0.9,2.1-1.3,3.2c-0.4,1-0.8,2.1-1.2,3.1c-0.3,1-0.6,2.1-0.9,3.3c6.1-7.8,10.7-11.8,13.7-11.8c0.8,0,1.7,0.3,2.7,0.8
		c1,0.5,1.8,1.3,2.5,2.2c-1,1.1-2,2.4-3.1,3.9s-2,3.1-2.9,4.7c-0.9,1.5-1.6,3-2.2,4.3c-0.5,1.3-0.8,2.3-0.8,2.9c0,0.3,0,0.5,0.1,0.7
		c0.1,0.1,0.3,0.1,0.6,0.1c0.5,0,0.9-0.1,1.2-0.2c0.3-0.1,0.5-0.2,0.5-0.2c0.2,0.3,0.3,0.4,0.3,0.5c0,0.1,0,0.2,0,0.2
		c0,0.1-0.2,0.3-0.6,0.6c-0.4,0.2-0.8,0.5-1.4,0.7c-0.5,0.2-1,0.4-1.5,0.6c-0.5,0.2-0.9,0.3-1.2,0.3c-0.3,0-0.6-0.1-1-0.3
		c-0.3-0.2-0.6-0.4-0.9-0.7c-0.2-0.3-0.4-0.6-0.6-1c-0.1-0.4-0.2-0.7-0.2-1.1c0-0.5,0.1-1.2,0.4-2.1c0.3-1,0.7-2.1,1.2-3.3
		c0.5-1.3,1.1-2.7,1.7-4.2c0.7-1.5,1.4-3,2.2-4.6c0-0.1-0.1-0.2-0.2-0.2c-0.1,0-0.4,0.1-0.8,0.4c-0.4,0.3-0.8,0.5-1.1,0.8
		c-1.2,0.9-2.3,1.9-3.5,3.2c-1.2,1.2-2.3,2.6-3.4,4.1c-1.1,1.5-2.1,3.1-3.1,4.8c-1,1.7-1.8,3.3-2.5,5c-0.1,0.2-0.2,0.4-0.4,0.6
		c-0.2,0.2-0.4,0.3-0.5,0.3c-0.1,0-0.2-0.1-0.4-0.3c-0.2-0.2-0.3-0.5-0.5-0.9c-0.1-0.3-0.3-0.7-0.4-1S229.4,51.4,229.4,51.2z"/>
</g>
</svg>
